<svg xmlns="http://www.w3.org/2000/svg" width="591.861" height="244.377" viewBox="0 0 591.861 244.377">
  <g id="Group_7145" data-name="Group 7145" transform="translate(-4474.941 2249.499)">
    <g id="Group_3607" data-name="Group 3607" transform="translate(4557.26 -2028.352)">
      <path id="Path_145" data-name="Path 145" d="M4580.293-1976.971a5.279,5.279,0,0,0-2.789.738v-4.537h-2.523v14.7h2.523v-5.713a2.463,2.463,0,0,1,2.656-2.752c1.453,0,2.148.77,2.148,2.346v6.119h2.539v-6.191C4584.848-1975.164,4583.1-1976.971,4580.293-1976.971Z" transform="translate(-4574.98 1980.77)" fill="#fff"/>
      <path id="Path_146" data-name="Path 146" d="M4614.477-1976.15a6.437,6.437,0,0,0-4.227,1.514l-.547.484,1.4,2,.7-.629a3.946,3.946,0,0,1,2.609-.947c1.3,0,1.875.518,1.906,1.715h-2.336c-3.953,0-4.242,2.6-4.242,3.395,0,2.055,1.656,3.445,4.133,3.445a5.079,5.079,0,0,0,2.484-.59v.518h2.477v-6.646C4618.828-1974.6,4617.25-1976.15,4614.477-1976.15Zm1.836,7.2a2.33,2.33,0,0,1-2.336,1.4c-.781,0-1.711-.193-1.711-1.113,0-.334,0-1.023,1.734-1.023h2.313Z" transform="translate(-4581.125 1979.951)" fill="#fff"/>
      <path id="Path_147" data-name="Path 147" d="M4649.887-1976.15a5.2,5.2,0,0,0-2.82.758v-.689h-2.492v10.836h2.523v-5.717a2.464,2.464,0,0,1,2.672-2.746c1.445,0,2.148.764,2.148,2.342v6.121h2.523v-6.191C4654.441-1974.346,4652.7-1976.15,4649.887-1976.15Z" transform="translate(-4587.307 1979.951)" fill="#fff"/>
      <path id="Path_148" data-name="Path 148" d="M4687.43-1976.082a5.16,5.16,0,0,0-2.93-.889,5.248,5.248,0,0,0-5.359,5.492,5.241,5.241,0,0,0,5.359,5.48,5.155,5.155,0,0,0,2.953-.885v.816h2.5v-14.7h-2.523Zm0,4.6a2.844,2.844,0,0,1-2.875,3.049,2.844,2.844,0,0,1-2.875-3.049,2.84,2.84,0,0,1,2.875-3.053A2.84,2.84,0,0,1,4687.43-1971.479Z" transform="translate(-4593.419 1980.77)" fill="#fff"/>
      <path id="Path_149" data-name="Path 149" d="M4728.422-1976.15a4.892,4.892,0,0,0-3.648,1.471,4.275,4.275,0,0,0-3.43-1.471,5.013,5.013,0,0,0-2.7.725v-.656h-2.492v10.836h2.523v-5.717c0-1.746.93-2.746,2.547-2.746,1.383,0,2.039.764,2.039,2.342v6.121h2.523v-5.717c0-1.746.93-2.746,2.539-2.746,1.375,0,2.055.764,2.055,2.342v6.121h2.523v-6.191C4732.906-1974.346,4731.188-1976.15,4728.422-1976.15Z" transform="translate(-4599.975 1979.951)" fill="#fff"/>
      <path id="Path_150" data-name="Path 150" d="M4764-1976.15a6.4,6.4,0,0,0-4.219,1.514l-.547.484,1.4,2,.688-.629a3.961,3.961,0,0,1,2.609-.947c1.3,0,1.891.518,1.906,1.715h-2.32c-3.953,0-4.266,2.6-4.266,3.395,0,2.055,1.664,3.445,4.141,3.445a5.153,5.153,0,0,0,2.492-.59v.518h2.484v-6.646C4768.367-1974.6,4766.773-1976.15,4764-1976.15Zm1.836,7.2a2.322,2.322,0,0,1-2.32,1.4c-.8,0-1.727-.193-1.727-1.113,0-.334,0-1.023,1.742-1.023h2.3Z" transform="translate(-4607.595 1979.951)" fill="#fff"/>
      <path id="Path_151" data-name="Path 151" d="M4801.2-1976.082a5.16,5.16,0,0,0-2.93-.889,5.248,5.248,0,0,0-5.359,5.492,5.241,5.241,0,0,0,5.359,5.48,5.105,5.105,0,0,0,2.938-.885v.816h2.508v-14.7H4801.2Zm-2.875,7.652a2.844,2.844,0,0,1-2.875-3.049,2.84,2.84,0,0,1,2.875-3.053,2.836,2.836,0,0,1,2.875,3.053A2.839,2.839,0,0,1,4798.328-1968.43Z" transform="translate(-4613.574 1980.77)" fill="#fff"/>
      <path id="Path_152" data-name="Path 152" d="M4833.922-1976.15a5.232,5.232,0,0,0-5.211,5.492,5.337,5.337,0,0,0,5.555,5.484,5.255,5.255,0,0,0,4.094-1.8l.438-.539-1.6-1.838-.617.75a2.915,2.915,0,0,1-2.312.979,2.88,2.88,0,0,1-2.914-2h6.938l.828-.051v-.822a1.889,1.889,0,0,0,.008-.2A5.157,5.157,0,0,0,4833.922-1976.15Zm-2.523,4.191a2.58,2.58,0,0,1,2.523-1.77,2.586,2.586,0,0,1,2.539,1.77Z" transform="translate(-4619.907 1979.951)" fill="#fff"/>
      <path id="Path_153" data-name="Path 153" d="M4892.234-1980.514a1.544,1.544,0,0,0-1.539,1.537,1.54,1.54,0,0,0,1.539,1.533,1.525,1.525,0,0,0,1.547-1.543A1.539,1.539,0,0,0,4892.234-1980.514Z" transform="translate(-4630.881 1980.726)" fill="#fff"/>
      <path id="Path_154" data-name="Path 154" d="M4890.234-1965.172c0,.943-.406,1.021-.82,1.021a1.442,1.442,0,0,1-.961-.3l-.773-.7-1.141,2.125.453.434a3.507,3.507,0,0,0,2.461.84,3.143,3.143,0,0,0,3.313-3.389v-10.926h-2.531Z" transform="translate(-4630.143 1979.936)" fill="#fff"/>
      <path id="Path_155" data-name="Path 155" d="M4921.992-1976.15a5.245,5.245,0,0,0-5.227,5.492,5.341,5.341,0,0,0,5.555,5.484,5.264,5.264,0,0,0,4.109-1.8l.445-.539-1.609-1.838-.625.75a2.86,2.86,0,0,1-2.3.979,2.883,2.883,0,0,1-2.922-2h6.938l.82-.051v-.822c.008-.076.023-.143.023-.2A5.163,5.163,0,0,0,4921.992-1976.15Zm-2.516,4.191a2.571,2.571,0,0,1,2.516-1.77,2.56,2.56,0,0,1,2.523,1.77Z" transform="translate(-4635.494 1979.951)" fill="#fff"/>
      <path id="Path_156" data-name="Path 156" d="M4961.5-1969.432l-2.539-6.684h-.859l-.1-.23-.078.23h-.859l-2.562,6.7-2.492-6.7h-2.6l4.1,10.832h.8l.188.523.188-.523h.766l2.547-6.527,2.531,6.527h.789l.188.49.2-.49h.8l4.094-10.832h-2.555Z" transform="translate(-4641.276 1979.989)" fill="#fff"/>
      <path id="Path_157" data-name="Path 157" d="M4995.391-1976.15a5.245,5.245,0,0,0-5.227,5.492,5.345,5.345,0,0,0,5.555,5.484,5.248,5.248,0,0,0,4.1-1.8l.438-.539-1.6-1.838-.617.75a2.865,2.865,0,0,1-2.3.979,2.9,2.9,0,0,1-2.922-2h6.938l.836-.057v-.82c0-.072.008-.139.008-.2A5.161,5.161,0,0,0,4995.391-1976.15Zm-2.523,4.191a2.58,2.58,0,0,1,2.523-1.77,2.563,2.563,0,0,1,2.531,1.77Z" transform="translate(-4648.478 1979.951)" fill="#fff"/>
      <rect id="Rectangle_415" data-name="Rectangle 415" width="2.526" height="14.704" transform="translate(370.772 0)" fill="#fff"/>
      <path id="Path_158" data-name="Path 158" d="M5054.977-1975.459v-.623h-2.5v10.836h2.531v-5.609c0-1.045.3-2.8,2.43-2.8h0c.07,0,.141.01.2.01h.82v-2.506h-.82A5,5,0,0,0,5054.977-1975.459Z" transform="translate(-4659.532 1979.951)" fill="#fff"/>
      <path id="Path_159" data-name="Path 159" d="M5088.8-1976.064l-3.148,7.027-3.141-7.027h-2.742l4.508,9.98-.336.764c-.516,1.156-.953,1.156-1.281,1.156a1.426,1.426,0,0,1-1.109-.475l-.727-.74-1.359,2.082.461.471a3.706,3.706,0,0,0,2.719,1.076c1.664,0,2.813-.865,3.617-2.713l5.242-11.6Z" transform="translate(-4664.298 1979.936)" fill="#fff"/>
    </g>
    <rect id="Rectangle_416" data-name="Rectangle 416" width="12.331" height="244.373" transform="translate(5031.206 -2249.495)" fill="#fff"/>
    <rect id="Rectangle_417" data-name="Rectangle 417" width="16.335" height="244.373" transform="translate(5050.468 -2249.495)" fill="#fff"/>
    <rect id="Rectangle_418" data-name="Rectangle 418" width="6.165" height="189.941" transform="translate(5013.312 -2249.495)" fill="#fff"/>
    <rect id="Rectangle_419" data-name="Rectangle 419" width="12.331" height="189.941" transform="translate(4985.838 -2249.495)" fill="#fff"/>
    <rect id="Rectangle_420" data-name="Rectangle 420" width="15.501" height="189.941" transform="translate(4963.4 -2249.499)" fill="#fff"/>
    <rect id="Rectangle_421" data-name="Rectangle 421" width="8.221" height="189.941" transform="translate(4939.088 -2249.495)" fill="#fff"/>
    <rect id="Rectangle_422" data-name="Rectangle 422" width="8.221" height="189.941" transform="translate(4890.134 -2249.495)" fill="#fff"/>
    <rect id="Rectangle_423" data-name="Rectangle 423" width="14.386" height="189.941" transform="translate(4911.6 -2249.495)" fill="#fff"/>
    <rect id="Rectangle_424" data-name="Rectangle 424" width="17.77" height="189.941" transform="translate(4858.701 -2249.499)" fill="#fff"/>
    <rect id="Rectangle_425" data-name="Rectangle 425" width="16.441" height="189.941" transform="translate(4764.183 -2249.495)" fill="#fff"/>
    <rect id="Rectangle_426" data-name="Rectangle 426" width="6.166" height="189.941" transform="translate(4793.72 -2249.495)" fill="#fff"/>
    <rect id="Rectangle_427" data-name="Rectangle 427" width="6.166" height="189.941" transform="translate(4719.599 -2249.495)" fill="#fff"/>
    <rect id="Rectangle_428" data-name="Rectangle 428" width="12.331" height="189.941" transform="translate(4815.032 -2249.495)" fill="#fff"/>
    <rect id="Rectangle_429" data-name="Rectangle 429" width="11.303" height="189.941" transform="translate(4834.294 -2249.495)" fill="#fff"/>
    <rect id="Rectangle_430" data-name="Rectangle 430" width="8.22" height="189.941" transform="translate(4743.889 -2249.495)" fill="#fff"/>
    <rect id="Rectangle_431" data-name="Rectangle 431" width="16.22" height="190.141" transform="translate(4685.838 -2249.499)" fill="#fff"/>
    <rect id="Rectangle_432" data-name="Rectangle 432" width="8.22" height="190.141" transform="translate(4670.696 -2249.495)" fill="#fff"/>
    <rect id="Rectangle_433" data-name="Rectangle 433" width="16.442" height="189.941" transform="translate(4642.184 -2249.495)" fill="#fff"/>
    <rect id="Rectangle_434" data-name="Rectangle 434" width="6.164" height="189.941" transform="translate(4622.921 -2249.495)" fill="#fff"/>
    <rect id="Rectangle_435" data-name="Rectangle 435" width="6.164" height="189.941" transform="translate(4609.66 -2249.495)" fill="#fff"/>
    <rect id="Rectangle_436" data-name="Rectangle 436" width="12.331" height="189.941" transform="translate(4587.661 -2249.495)" fill="#fff"/>
    <rect id="Rectangle_437" data-name="Rectangle 437" width="15.219" height="189.941" transform="translate(4565.91 -2249.499)" fill="#fff"/>
    <rect id="Rectangle_438" data-name="Rectangle 438" width="8.22" height="189.941" transform="translate(4548.697 -2249.495)" fill="#fff"/>
    <rect id="Rectangle_439" data-name="Rectangle 439" width="14.386" height="189.941" transform="translate(4521.216 -2249.495)" fill="#fff"/>
    <rect id="Rectangle_440" data-name="Rectangle 440" width="12.331" height="244.373" transform="translate(4497.848 -2249.495)" fill="#fff"/>
    <rect id="Rectangle_441" data-name="Rectangle 441" width="15.967" height="244.373" transform="translate(4474.941 -2249.499)" fill="#fff"/>
  </g>
</svg>
