<svg xmlns="http://www.w3.org/2000/svg" width="2266" height="2266" viewBox="0 0 2266 2266">
  <g id="Group_7221" data-name="Group 7221" transform="translate(1951 7708)">
    <rect id="Rectangle_1382" data-name="Rectangle 1382" width="2266" height="2266" transform="translate(-1951 -7708)"/>
    <g id="Group_7220" data-name="Group 7220" transform="translate(-2258.524 -5672.062)">
      <path id="Path_26" data-name="Path 26" d="M1789.792-1556.984H1090.3a101.87,101.87,0,0,0-72.034,29.835L575.369-1084.308a101.884,101.884,0,0,0-.006,144.088l792.674,792.661a101.877,101.877,0,0,0,144.081,0l792.611-792.669a101.875,101.875,0,0,0-.006-144.08l-442.891-442.841A101.875,101.875,0,0,0,1789.792-1556.984Zm355.475,557.243L1452.6-307.016a17.71,17.71,0,0,1-25.046,0l-312.3-312.3a17.7,17.7,0,0,1,0-25.046l692.663-692.669a17.715,17.715,0,0,1,25.046,0l312.3,312.247A17.711,17.711,0,0,1,2145.267-999.741Zm-521.48-372.14-171.189,171.2a17.709,17.709,0,0,1-25.04,0l-171.24-171.2c-11.157-11.151-3.258-30.231,12.52-30.231h342.429C1627.046-1402.112,1634.944-1383.038,1623.787-1371.881ZM1318.063-1066.15l-312.3,312.3a17.7,17.7,0,0,1-25.046,0L734.826-999.741a17.7,17.7,0,0,1,0-25.046l312.3-312.253a17.707,17.707,0,0,1,25.039,0L1318.057-1091.2A17.71,17.71,0,0,1,1318.063-1066.15Z" transform="translate(0 0)" fill="#fff"/>
      <circle id="Ellipse_1" data-name="Ellipse 1" cx="75.774" cy="75.774" r="75.774" transform="translate(1364.271 -686.019)" fill="#fff"/>
    </g>
  </g>
</svg>
