<svg xmlns="http://www.w3.org/2000/svg" width="120.556" height="96.986" viewBox="0 0 120.556 96.986">
  <g id="Group_8834" data-name="Group 8834" transform="translate(-135.223 -325.014)">
    <g id="Group_8787" data-name="Group 8787" transform="translate(0 -48.503)">
      <g id="Group_8528" data-name="Group 8528" transform="translate(135.223 373.517)">
        <path id="Path_26" data-name="Path 26" d="M629.37-1556.984H582.234a6.865,6.865,0,0,0-4.854,2.011l-29.844,29.841a6.866,6.866,0,0,0,0,9.709l53.415,53.414a6.865,6.865,0,0,0,9.709,0l53.411-53.415a6.865,6.865,0,0,0,0-9.709l-29.844-29.841A6.866,6.866,0,0,0,629.37-1556.984Zm23.954,37.55-46.675,46.68a1.194,1.194,0,0,1-1.688,0L583.916-1493.8a1.193,1.193,0,0,1,0-1.687l46.676-46.676a1.194,1.194,0,0,1,1.688,0l21.045,21.041A1.193,1.193,0,0,1,653.324-1519.434Zm-35.14-25.076-11.536,11.536a1.194,1.194,0,0,1-1.687,0l-11.539-11.536a1.193,1.193,0,0,1,.844-2.037H617.34A1.193,1.193,0,0,1,618.184-1544.511Zm-20.6,20.6-21.045,21.044a1.193,1.193,0,0,1-1.688,0l-16.569-16.569a1.193,1.193,0,0,1,0-1.688l21.045-21.041a1.193,1.193,0,0,1,1.687,0l16.569,16.566A1.193,1.193,0,0,1,597.582-1523.909Z" transform="translate(-545.524 1556.984)" fill="#fff"/>
        <circle id="Ellipse_1" data-name="Ellipse 1" cx="5.106" cy="5.106" r="5.106" transform="translate(55.172 58.69)" fill="#fff"/>
      </g>
    </g>
    <path id="Path_14763" data-name="Path 14763" d="M111.742,66.315h-1.219c-.255,0-.255,0-.32-.255q-.691-2.748-1.387-5.5a.225.225,0,0,0-.07-.125v5.875h-1.4V58.7l.1-.011c.677,0,1.349.005,2.027-.005.141,0,.173.06.206.179.423,1.615.856,3.236,1.284,4.851a.252.252,0,0,0,.065.125l.043-.141c.428-1.62.856-3.236,1.279-4.856.033-.114.076-.152.2-.152.677.005,1.35,0,2.027.005l.114.005v7.6h-1.409V60.418l-.038-.005q-.748,2.943-1.5,5.9" transform="translate(138.843 269.965)" fill="#fff"/>
    <path id="Path_14764" data-name="Path 14764" d="M106.04,59.961V58.687h6.043v1.268h-2.249v6.336H108.3v-6.33Z" transform="translate(133.091 269.977)" fill="#fff"/>
  </g>
</svg>
