<svg xmlns="http://www.w3.org/2000/svg" width="82" height="10.851" viewBox="0 0 82 10.851">
  <g id="Group_3" data-name="Group 3" transform="translate(-501.384 -479.008)">
    <g id="Group_1" data-name="Group 1" transform="translate(501.384 479.008)">
      <path id="Path_1" data-name="Path 1" d="M504.894,489.429l-2.22-5.336v5.766h-1.289V479.008h1.289v1.737l.394.931,1.146-2.471.089-.2h1.433l-.43.913-1.576,3.366,2.382,5.676.358.9h-1.4Z" transform="translate(-501.384 -479.008)" fill="#fff"/>
      <path id="Path_2" data-name="Path 2" d="M607.955,487.621h-2.149v2.238h-1.29v-8.487a2.25,2.25,0,0,1,.188-.913,2.416,2.416,0,0,1,1.262-1.262,2.252,2.252,0,0,1,.913-.188,2.318,2.318,0,0,1,.922.188,2.394,2.394,0,0,1,1.271,1.262,2.254,2.254,0,0,1,.188.913v8.487h-1.307Zm0-6.249a1.074,1.074,0,1,0-2.149,0v4.942h2.149Z" transform="translate(-595.261 -479.008)" fill="#fff"/>
      <path id="Path_3" data-name="Path 3" d="M705.948,489.859h-1.29V479.008h1.29Z" transform="translate(-686.414 -479.008)" fill="#fff"/>
      <path id="Path_4" data-name="Path 4" d="M769.187,479.008v9.562H771.1v1.289H767.9V479.008Z" transform="translate(-743.978 -479.008)" fill="#fff"/>
      <path id="Path_5" data-name="Path 5" d="M850.777,487.5a1.074,1.074,0,1,0,2.149,0v-8.487h1.307V487.5a2.255,2.255,0,0,1-.188.913,2.435,2.435,0,0,1-.51.752,2.409,2.409,0,0,1-.761.51,2.316,2.316,0,0,1-.922.188,2.253,2.253,0,0,1-.913-.188,2.415,2.415,0,0,1-1.262-1.262,2.255,2.255,0,0,1-.188-.913v-8.487h1.289Z" transform="translate(-818.246 -479.008)" fill="#fff"/>
      <path id="Path_6" data-name="Path 6" d="M953.371,479.348a4.309,4.309,0,0,1,2.292,2.292,4.227,4.227,0,0,1,.1,3.071,4.458,4.458,0,0,1-.662,1.218,4.38,4.38,0,0,1-.994.94,4.312,4.312,0,0,1-1.253.591l.77,1.647.358.752h-1.433l-.161-.376-.877-1.862h-.591v2.238h-1.289V479.008h2.077A4.157,4.157,0,0,1,953.371,479.348Zm-.5,6.733a2.881,2.881,0,0,0,.958-.645,3.219,3.219,0,0,0,.645-.958,2.965,2.965,0,0,0,0-2.346,3.22,3.22,0,0,0-.645-.958,2.881,2.881,0,0,0-.958-.645,2.981,2.981,0,0,0-1.164-.233h-.788v6.016h.788A2.982,2.982,0,0,0,952.87,486.081Z" transform="translate(-909.399 -479.008)" fill="#fff"/>
      <path id="Path_7" data-name="Path 7" d="M1071.63,489.429l-2.22-5.336v5.766h-1.29V479.008h1.29v1.737l.394.931,1.146-2.471.09-.2h1.432l-.43.913-1.576,3.366,2.381,5.676.358.9h-1.4Z" transform="translate(-1017.255 -479.008)" fill="#fff"/>
      <path id="Path_8" data-name="Path 8" d="M1172.545,489.859h-1.289V479.008h1.289v7.306h1.271v-7.306h1.289v10.851h-1.289v-2.238h-1.271Z" transform="translate(-1111.135 -479.008)" fill="#fff"/>
      <path id="Path_9" data-name="Path 9" d="M1265.46,487.621h-2.149v2.238h-1.289v-8.487a2.252,2.252,0,0,1,.188-.913,2.414,2.414,0,0,1,1.262-1.262,2.253,2.253,0,0,1,.913-.188,2.317,2.317,0,0,1,.922.188,2.391,2.391,0,0,1,1.271,1.262,2.254,2.254,0,0,1,.188.913v8.487h-1.307Zm0-6.249a1.074,1.074,0,1,0-2.149,0v4.942h2.149Z" transform="translate(-1193.754 -479.008)" fill="#fff"/>
      <path id="Path_10" data-name="Path 10" d="M1365.6,489.859v-.108l-2.149-6.518v6.625h-1.289V479.008h1.289v.108l2.149,6.518v-6.625h1.307v10.851Z" transform="translate(-1284.908 -479.008)" fill="#fff"/>
    </g>
  </g>
</svg>
