<svg xmlns="http://www.w3.org/2000/svg" width="120.556" height="96.986" viewBox="0 0 120.556 96.986">
  <g id="Group_8787" data-name="Group 8787" transform="translate(-135.223 -373.517)">
    <g id="Group_8528" data-name="Group 8528" transform="translate(135.223 373.517)">
      <path id="Path_26" data-name="Path 26" d="M629.37-1556.984H582.234a6.865,6.865,0,0,0-4.854,2.011l-29.844,29.841a6.866,6.866,0,0,0,0,9.709l53.415,53.414a6.865,6.865,0,0,0,9.709,0l53.411-53.415a6.865,6.865,0,0,0,0-9.709l-29.844-29.841A6.866,6.866,0,0,0,629.37-1556.984Zm23.954,37.55-46.675,46.68a1.194,1.194,0,0,1-1.688,0L583.916-1493.8a1.193,1.193,0,0,1,0-1.687l46.676-46.676a1.194,1.194,0,0,1,1.688,0l21.045,21.041A1.193,1.193,0,0,1,653.324-1519.434Zm-35.14-25.076-11.536,11.536a1.194,1.194,0,0,1-1.687,0l-11.539-11.536a1.193,1.193,0,0,1,.844-2.037H617.34A1.193,1.193,0,0,1,618.184-1544.511Zm-20.6,20.6-21.045,21.044a1.193,1.193,0,0,1-1.688,0l-16.569-16.569a1.193,1.193,0,0,1,0-1.688l21.045-21.041a1.193,1.193,0,0,1,1.687,0l16.569,16.566A1.193,1.193,0,0,1,597.582-1523.909Z" transform="translate(-545.524 1556.984)" fill="#fff"/>
      <circle id="Ellipse_1" data-name="Ellipse 1" cx="5.106" cy="5.106" r="5.106" transform="translate(55.172 58.69)" fill="#fff"/>
    </g>
    <g id="Group_8786" data-name="Group 8786" transform="translate(-73.723 -29.464)">
      <path id="Path_14704" data-name="Path 14704" d="M13.176,26.055A7.653,7.653,0,1,1,20.829,18.4a7.662,7.662,0,0,1-7.653,7.653m0-14.47A6.817,6.817,0,1,0,19.993,18.4a6.824,6.824,0,0,0-6.817-6.817" transform="translate(308.673 392.233)" fill="#fff"/>
      <path id="Path_14705" data-name="Path 14705" d="M20.149,26.348l-1.381-2.366a2.452,2.452,0,0,1-.287.011h-1.8v2.355H15.145v-8h3.336a3.591,3.591,0,0,1,2.4.72,2.527,2.527,0,0,1,.848,2.034,3,3,0,0,1-.407,1.6,2.473,2.473,0,0,1-1.182,1l1.76,2.65Zm-3.473-3.7h1.8a2.033,2.033,0,0,0,1.325-.376,1.364,1.364,0,0,0,.458-1.121,1.319,1.319,0,0,0-.458-1.1,2.081,2.081,0,0,0-1.325-.365h-1.8Z" transform="translate(303.676 388.285)" fill="#fff"/>
    </g>
  </g>
</svg>
