<svg xmlns="http://www.w3.org/2000/svg" width="28.779" height="23.152" viewBox="0 0 28.779 23.152">
  <g id="Group_3616" data-name="Group 3616" transform="translate(-545.524 1553.589)">
    <g id="Group_7124" data-name="Group 7124" transform="translate(545.524 -1553.589)">
      <path id="Path_26" data-name="Path 26" d="M565.54-1556.984H554.288a1.639,1.639,0,0,0-1.159.48L546-1549.381a1.639,1.639,0,0,0,0,2.318l12.751,12.751a1.639,1.639,0,0,0,2.318,0l12.75-12.751a1.639,1.639,0,0,0,0-2.318L566.7-1556.5A1.639,1.639,0,0,0,565.54-1556.984Zm5.718,8.964-11.142,11.143a.285.285,0,0,1-.4,0l-5.024-5.024a.285.285,0,0,1,0-.4l11.142-11.142a.285.285,0,0,1,.4,0l5.024,5.023A.285.285,0,0,1,571.258-1548.02Zm-8.389-5.986-2.754,2.754a.285.285,0,0,1-.4,0l-2.755-2.754a.285.285,0,0,1,.2-.486h5.508A.285.285,0,0,1,562.869-1554.006Zm-4.918,4.918-5.024,5.024a.285.285,0,0,1-.4,0l-3.955-3.955a.285.285,0,0,1,0-.4l5.024-5.023a.285.285,0,0,1,.4,0l3.955,3.955A.285.285,0,0,1,557.951-1549.088Z" transform="translate(-545.524 1556.984)" fill="#fff"/>
      <circle id="Ellipse_1" data-name="Ellipse 1" cx="1.219" cy="1.219" r="1.219" transform="translate(13.17 13.828)" fill="#fff"/>
    </g>
  </g>
</svg>
