<svg id="Group_7145" data-name="Group 7145" xmlns="http://www.w3.org/2000/svg" width="543.502" height="97.413" viewBox="0 0 543.502 97.413">
  <path id="Path_160" data-name="Path 160" d="M38.085-762.556q-7.571,10.136-15.207,20.208t-15.747,19.8q-3.787,4.592-7.638,9.124T-8.684-704.7q-1.893,1.891-4.325,3.987a9.477,9.477,0,0,1-5.407,2.366,6.056,6.056,0,0,1-5.2-2.5,17.132,17.132,0,0,1-2.7-6.015,42.29,42.29,0,0,1-1.149-7.165q-.272-3.65-.405-5.812-.678-6.082-1.15-12.03t-1.148-12.03q-.678-5.4-1.69-11.354a30.524,30.524,0,0,0-3.852-10.679,5.287,5.287,0,0,0-2.028-2.163q-.948-.405-2.7-1.081-1.489-.539-2.771-1.149a2.609,2.609,0,0,1-1.284-2.636,3.131,3.131,0,0,1,1.013-2.5,7.023,7.023,0,0,1,2.5-1.351,17.392,17.392,0,0,1,3.042-.677,23.554,23.554,0,0,0,2.636-.473l15.679-2.839q10.138-1.89,20.276-3.244t20.411-2.568q25.952-3.108,51.636-5.2T124.461-795q1.89-.133,4.123-.066a3.388,3.388,0,0,1,3.176,2.366,3.511,3.511,0,0,1-.405,3.378,3.733,3.733,0,0,1-2.973,1.757,13.363,13.363,0,0,1-4.394.406,38.579,38.579,0,0,0-4.527,0l-12.3.541L84.314-785q-13.249.948-26.358,2.1T31.6-780.265Q15.783-778.505.305-776.276t-31.022,5.2a27.355,27.355,0,0,1,3.176,6.15,47.553,47.553,0,0,1,2.028,7.1q.741,3.65,1.216,7.1t.743,6.015q.675,5.545,1.15,11.017t1.149,11.152q.133,1.622.2,3.717t.338,4.258a33.641,33.641,0,0,0,.811,4.257,12.369,12.369,0,0,0,1.487,3.583,8.624,8.624,0,0,1,1.69-1.284q1.013-.608,1.554-1.014,2.3-2.164,4.393-4.529t4.258-4.662Q2.806-728.9,11.186-739.983q4.324-5.54,8.584-11.084t8.583-11.219q.539-.812,1.216-1.893a22.294,22.294,0,0,1,1.487-2.095,8.844,8.844,0,0,1,1.757-1.69,3.633,3.633,0,0,1,2.164-.675,3.568,3.568,0,0,1,3.379,2.1A3.579,3.579,0,0,1,38.085-762.556Z" transform="translate(44.504 795.088)" fill="#fff"/>
  <path id="Path_161" data-name="Path 161" d="M141.859-712.685a4.957,4.957,0,0,1,2.7.879,3.69,3.69,0,0,1,1.284,1.892,6.556,6.556,0,0,1,.2,2.5q-.135,1.353-.405,2.7a15.394,15.394,0,0,1,2.365-.338,7.644,7.644,0,0,0,1.96-.338q3.377-.812,6.894-2.027,4.461-1.486,8.988-2.906a58.86,58.86,0,0,1,9.259-2.1,8.3,8.3,0,0,1,2.906.271,5.878,5.878,0,0,1,2.568,1.352,3.21,3.21,0,0,1,1.082,2.23q.067,1.285-1.689,2.635a3.323,3.323,0,0,1-1.961.677,17.02,17.02,0,0,0-2.095.134q-2.028.272-4.056.676t-3.92.946q-4.055,1.083-8.043,2.3T152-698.627q-2.3.812-5.339,1.825a8.924,8.924,0,0,1-5.61.2,5.007,5.007,0,0,1-2.365-1.825,6.323,6.323,0,0,1-.946-2.568,9.031,9.031,0,0,1,.067-2.907,26.547,26.547,0,0,1,.676-2.837,3.342,3.342,0,0,1-.541-1.893,4.628,4.628,0,0,1,.406-1.959,3.681,3.681,0,0,1,1.284-1.487A3.84,3.84,0,0,1,141.859-712.685Zm34.6-25.277a5.25,5.25,0,0,1-.406,2.3,2.318,2.318,0,0,1-1.216,1.148,3.665,3.665,0,0,1-1.892.2,17.67,17.67,0,0,1-2.163-.405,6.1,6.1,0,0,1-1.892,4.46,9.566,9.566,0,0,1-4.123,2.164,25.082,25.082,0,0,1-6.015.946,34.635,34.635,0,0,1-6.488-.338,18.631,18.631,0,0,1-5.677-1.689,7.735,7.735,0,0,1-3.514-3.245q-1.084-2.027.135-5a7.773,7.773,0,0,1,3.177-3.988,16.6,16.6,0,0,1,5-2.095,29.814,29.814,0,0,1,5.677-.811,50.382,50.382,0,0,1,5.2,0,34.94,34.94,0,0,1,3.717.27,27.825,27.825,0,0,1,4.663.946,13.149,13.149,0,0,1,3.988,1.892A4.178,4.178,0,0,1,176.463-737.961Zm-10.544,3.92a2.181,2.181,0,0,0-.675-2.567,1.072,1.072,0,0,0-.406-.136.381.381,0,0,1-.27-.134q-1.489-.271-3.718-.608a30.734,30.734,0,0,0-4.6-.338,15.211,15.211,0,0,0-4.393.608,5.346,5.346,0,0,0-2.974,1.96.392.392,0,0,1-.135.27q.269,1.084,1.96,1.689a17.9,17.9,0,0,0,3.718.878,29.261,29.261,0,0,0,3.921.271h2.568q1.35-.27,2.636-.609A5.809,5.809,0,0,0,165.919-734.042Z" transform="translate(-38.994 771.844)" fill="#fff"/>
  <path id="Path_162" data-name="Path 162" d="M203.975-685.858a5.3,5.3,0,0,1,3.109.947,2.788,2.788,0,0,1,1.014,2.028,5.905,5.905,0,0,1-.541,2.635q-.608,1.419-1.285,2.772,2.566-.675,5.2-1.555t4.933-1.555a38.274,38.274,0,0,0,4.258-1.419q2.23-.877,4.528-1.622a43.827,43.827,0,0,1,4.6-1.218,12.944,12.944,0,0,1,4.325-.2,7.081,7.081,0,0,1,2.23.608,4,4,0,0,1,1.689,1.555,4.046,4.046,0,0,1,.136,3.92q2.838-.811,5.745-1.825t5.745-1.892a42.751,42.751,0,0,1,5.744-1.352,28.535,28.535,0,0,1,5.88-.336,6.175,6.175,0,0,1,3.379.945q2.3,1.489,2.3,3.109a16.863,16.863,0,0,1-.405,3.514,14,14,0,0,0,4.257-1.352q2.231-1.079,3.718-1.756,3.92-1.624,7.773-3.381a31.439,31.439,0,0,1,8.043-2.433,8.47,8.47,0,0,1,2.569.135,4.92,4.92,0,0,1,2.23,1.014,3.465,3.465,0,0,1,1.148,1.893,3.485,3.485,0,0,1-.675,2.635,4.037,4.037,0,0,1-1.96,1.419,16.293,16.293,0,0,1-2.771.743c-.993.182-1.984.338-2.974.473a17.939,17.939,0,0,0-2.433.474,42.634,42.634,0,0,0-5.407,2.433q-3.111,1.622-6.353,3.042a29.913,29.913,0,0,1-6.488,2.027,8.783,8.783,0,0,1-5.677-.608,4.5,4.5,0,0,1-2.637-3.042,10.12,10.12,0,0,1,.068-3.852,18.089,18.089,0,0,0-5.677.676q-2.975.81-5.542,1.486-1.759.543-3.785,1.285T239.863-672a37.593,37.593,0,0,1-4.19,1.216,13.764,13.764,0,0,1-3.988.337,4.758,4.758,0,0,1-3.515-1.352,3.865,3.865,0,0,1-.811-4.866,51.919,51.919,0,0,0-6.352,2.029q-3.113,1.216-6.218,2.365t-6.217,1.959a25.065,25.065,0,0,1-6.353.811,8.92,8.92,0,0,1-2.163-.27,4.03,4.03,0,0,1-1.892-1.082,4.281,4.281,0,0,1-1.352-2.635,6.266,6.266,0,0,1,.406-2.839,17.557,17.557,0,0,1,1.351-2.771q.812-1.35,1.623-2.568a4.029,4.029,0,0,1,.879-2.839A3.419,3.419,0,0,1,203.975-685.858Z" transform="translate(-66.102 745.017)" fill="#fff"/>
  <path id="Path_163" data-name="Path 163" d="M631.007-701.44a42.684,42.684,0,0,1-13.99,3.055q-7.5.4-14.531.532-12.844.27-25.615-.4t-25.615-1.73q-12.977-1.063-25.75-2.457t-25.615-2.989q-1.489-.271-2.907-.54a2.826,2.826,0,0,1-2.094-1.756,3.485,3.485,0,0,1-.068-3.448,3.514,3.514,0,0,1,2.771-1.96,127.554,127.554,0,0,0,24.872-7.3,127.6,127.6,0,0,0,13.449-6.488,85.04,85.04,0,0,0,12.368-8.381,94.079,94.079,0,0,0,8.043-7.569,57.434,57.434,0,0,0,7.231-9.327,36.207,36.207,0,0,0,4.462-10.476,20.831,20.831,0,0,0-.271-11.016,15.207,15.207,0,0,0-4.8-7.435,22.465,22.465,0,0,0-7.773-4.054,34.618,34.618,0,0,0-9.6-1.42,85.986,85.986,0,0,0-10.206.473,88.5,88.5,0,0,0-9.664,1.554q-4.6,1.014-7.975,1.825a1.5,1.5,0,0,0-.676.136h.135a114.324,114.324,0,0,0-21.966,8.718A75.108,75.108,0,0,0,476.37-759.9a74.519,74.519,0,0,0-9.935,12.64,49.279,49.279,0,0,0-6.15,14.8,20.733,20.733,0,0,0-.338,3.649,32.472,32.472,0,0,1-.473,4.731,9.023,9.023,0,0,1-1.488,3.785q-1.083,1.487-3.513.811a3.935,3.935,0,0,1-2.839-3.243,16.549,16.549,0,0,1-.135-5.611,39.7,39.7,0,0,1,1.284-6.015q.879-2.97,1.42-4.46a62.62,62.62,0,0,1,10.206-19.06,81.969,81.969,0,0,1,15.342-15,98.332,98.332,0,0,1,18.72-11.017,121.365,121.365,0,0,1,20.344-7.1,104.788,104.788,0,0,1,11.286-2.027,84.672,84.672,0,0,1,12.638-.677,63.551,63.551,0,0,1,12.436,1.488,32.321,32.321,0,0,1,10.746,4.393,22.564,22.564,0,0,1,7.434,7.975,23.788,23.788,0,0,1,2.636,12.233,33.383,33.383,0,0,1-2.5,12.1,51.138,51.138,0,0,1-6.15,10.882,68.232,68.232,0,0,1-8.515,9.53,87.474,87.474,0,0,1-9.6,7.771,105.68,105.68,0,0,1-15.544,9.4,145.012,145.012,0,0,1-16.762,6.961q17.031,2.027,33.861,3.446t33.861,2.094q10,.267,20.41.4a75.02,75.02,0,0,0,20.141-2.428q.675-.271,1.487-.54a12.148,12.148,0,0,1,1.487-.406,4.243,4.243,0,0,1,2.974.541,4.649,4.649,0,0,1,1.893,1.955,3.172,3.172,0,0,1,.135,2.406A3.648,3.648,0,0,1,631.007-701.44Zm-151.392,4.4q-2.839,0-3.379-1.826a7.935,7.935,0,0,1,.338-4.6,31.835,31.835,0,0,1,2.77-6.083q1.893-3.313,3.853-6.285t3.649-5.137q1.689-2.162,2.23-2.839a205.258,205.258,0,0,1,29.062-28.251q1.351-1.08,3.11-2.5a3.586,3.586,0,0,1,3.649-.743,4.118,4.118,0,0,1,1.757,1.216,3.541,3.541,0,0,1,.811,1.824,4.516,4.516,0,0,1-.2,2.028,3.372,3.372,0,0,1-1.285,1.689,124.122,124.122,0,0,0-10.476,8.516q-5.07,4.6-9.8,9.327-4.6,4.6-8.854,9.395a106.185,106.185,0,0,0-7.908,10.071q-1.352,1.89-2.5,3.783a40.209,40.209,0,0,0-2.1,3.921,9.562,9.562,0,0,0-.608,2.028,8.8,8.8,0,0,1-.677,2.095,4.849,4.849,0,0,1-1.284,1.69A3.276,3.276,0,0,1,479.615-697.043Z" transform="translate(-182.782 794.456)" fill="#fff"/>
  <path id="Path_164" data-name="Path 164" d="M733.191-681.346q-6.9.136-14.058.338a50.234,50.234,0,0,1-14.058-1.576,2.34,2.34,0,0,1-1.081-.276,16.576,16.576,0,0,1-2.365,4.42,18.627,18.627,0,0,1-3.448,3.581,12.537,12.537,0,0,1-4.123,2.164,8.123,8.123,0,0,1-4.393.135,5.108,5.108,0,0,1-3.041-2.028,6.736,6.736,0,0,1-1.149-3.379,10.114,10.114,0,0,1,.473-3.806,12.231,12.231,0,0,1,1.689-3.427,10.8,10.8,0,0,1,4.461-3.295,7.919,7.919,0,0,1,5.406-.283,4,4,0,0,1,2.163-2.977,3.727,3.727,0,0,1,4.056.271,16.4,16.4,0,0,0,4.393,1.825,25.124,25.124,0,0,0,4.935.745q2.566.137,5.068.067t4.8-.069a53.736,53.736,0,0,0,5.812-.339,13.763,13.763,0,0,1,5.678.476,3.6,3.6,0,0,1,2.1,1.791,4.03,4.03,0,0,1,.406,2.476,4.032,4.032,0,0,1-1.15,2.2A3.435,3.435,0,0,1,733.191-681.346Zm-40.417,1.756a2.355,2.355,0,0,1,1.623-.4v-1.216a4.7,4.7,0,0,1-.812.608A2.048,2.048,0,0,0,692.774-679.59Z" transform="translate(-290.104 747.94)" fill="#fff"/>
  <path id="Path_165" data-name="Path 165" d="M814.305-755.192a76.328,76.328,0,0,0-12.707,9.26q-5.95,5.342-11.624,10.881-3.244,3.111-6.354,6.354t-6.217,6.488q-1.623,1.893-3.447,3.717t-3.583,3.852q2.839-.674,5.609-1.622t5.07-1.622q2.028-.405,4.325-1.081t4.6-1.15a27.1,27.1,0,0,1,4.663-.541,10.906,10.906,0,0,1,4.393.744,4.5,4.5,0,0,1,3.108,3.244,3.868,3.868,0,0,1-.27,2.838q2.3-.674,4.528-1.486t4.258-1.487q3.918-1.217,7.84-2.5a69.571,69.571,0,0,1,7.975-2.1,13.557,13.557,0,0,1,2.637-.337,7.676,7.676,0,0,1,2.771.337,3.234,3.234,0,0,1,1.825,1.42,3.692,3.692,0,0,1,.068,2.906,3.6,3.6,0,0,1-1.622,1.96,10.131,10.131,0,0,1-2.838,1.148,27.448,27.448,0,0,1-3.243.608,17.889,17.889,0,0,0-2.57.473q-4.6,1.353-9.055,2.771t-8.921,2.771q-2.3.674-5,1.42a10.565,10.565,0,0,1-5.137.2,5.3,5.3,0,0,1-2.027-.812q-2.3-1.757-2.163-3.242a5.96,5.96,0,0,1,1.217-2.975h-1.622q-4.866.811-9.732,2.028-3.922,1.083-7.908,2.433a36.287,36.287,0,0,1-8.177,1.756,6.27,6.27,0,0,1-2.974-.472,3.893,3.893,0,0,1-2.164-2.366,4.031,4.031,0,0,1,0-2.905,12.686,12.686,0,0,1,1.487-2.772,78.133,78.133,0,0,1-7.366,3.852q-3.448,1.557-5.2,2.23-3.517,1.488-7.569,3.11a19.923,19.923,0,0,1-8.111,1.487q-4.459-.272-5.406-2.433t.338-5.474a34.4,34.4,0,0,1,3.988-7.165,92.292,92.292,0,0,1,5.744-7.366q3.041-3.515,5.611-6.15t3.378-3.447l1.893-1.893h-7.7q-3.788,0-7.7.136-7.838.272-15.614.743t-15.612,1.285q-2.839.406-5.609.743a50.947,50.947,0,0,0-5.61,1.014,13,13,0,0,0-1.487.405,2.093,2.093,0,0,1-1.487,0,1.871,1.871,0,0,1-1.419-1.959,1.841,1.841,0,0,1,1.419-1.825,181.844,181.844,0,0,1,33.388-5.339q17.167-1.146,33.928-1.419,3.515-3.245,7.029-6.354t7.164-6.217q1.756-1.622,4.123-4.123a10.76,10.76,0,0,1,4.8-3.177,3.261,3.261,0,0,1,2.366.068,3.33,3.33,0,0,1,1.555,1.487,3.773,3.773,0,0,1,.4,2.23,3.56,3.56,0,0,1-1.081,2.162q-4.192,3.518-8.245,6.962t-7.975,7.1a12.841,12.841,0,0,1,3.784.542,8.232,8.232,0,0,1,2.907,1.351,5.144,5.144,0,0,1,1.824,2.839,3.232,3.232,0,0,1-.405,2.772,4.406,4.406,0,0,1-2.028,1.621,3.944,3.944,0,0,1-2.5.136,3.007,3.007,0,0,1-1.96-1.69,19.192,19.192,0,0,0-4.055-1.014,30.109,30.109,0,0,0-4.325-.338l-1.352,1.216q-5.546,5.272-11.693,11.354a49.7,49.7,0,0,0-9.664,13.111,71.728,71.728,0,0,0,9.732-2.7q5-1.755,9.868-3.92t9.6-4.663a100.053,100.053,0,0,0,8.785-5.2q5.136-5.271,10.476-10.341t10.881-9.8q3.38-2.971,6.9-5.812t7.164-5.272a8.064,8.064,0,0,1,3.312-1.419,2.851,2.851,0,0,1,3.041,1.555,3.556,3.556,0,0,1,.338,2.635A3.59,3.59,0,0,1,814.305-755.192Z" transform="translate(-290.521 781.098)" fill="#fff"/>
</svg>
